<svg viewBox="0 0 400 400" width="400" height="400" xmlns="http://www.w3.org/2000/svg" role="img" aria-label="Soulflake nucleus beat 8 of 8">
  <!-- Eight-beat option 8: Seat lit. Nucleus plates only. Live scale 0.45. No arms. Midnight. -->
  <rect width="400" height="400" fill="#070B14"/>
  <g transform="translate(200 200)" fill="none">
    <polygon points="0,-11.25 9.74,-5.625 9.74,5.625 0,11.25 -9.74,5.625 -9.74,-5.625" fill="#0C1820" stroke="#67E8F9" stroke-width="1.2"/>
    <polygon points="0,-11.25 9.74,-5.625 9.74,5.625 0,11.25 -9.74,5.625 -9.74,-5.625" fill="none" stroke="#F8FAFC" stroke-width=".35" opacity=".65"/>
  </g>
  <g transform="translate(200 200) scale(0.45)" fill="none" stroke-linejoin="miter">
    <polygon points="0,-32 27.71,-16 27.71,16 0,32 -27.71,16 -27.71,-16" fill="#182930" stroke="#86E0EC" stroke-width="1.4"/>
    <polygon points="0,-25 21.65,-12.5 21.65,12.5 0,25 -21.65,12.5 -21.65,-12.5" fill="#1E363E" stroke="#A38FDD" stroke-width=".45"/>
    <polygon points="0,-18 15.59,-9 15.59,9 0,18 -15.59,9 -15.59,-9" fill="#29474F" stroke="#86E0EC" stroke-width=".4"/>
    <polygon points="0,-11 9.53,-5.5 9.53,5.5 0,11 -9.53,5.5 -9.53,-5.5" fill="#396670" stroke="#F9FAFB" stroke-width=".5"/>
    <g fill="#1E363E" stroke="#86E0EC" stroke-width="1">
      <polygon points="0,-32 -2.6,-36.8 0,-41.5 2.6,-36.8"/>
      <g transform="rotate(60)"><polygon points="0,-32 -2.6,-36.8 0,-41.5 2.6,-36.8"/></g>
      <g transform="rotate(120)"><polygon points="0,-32 -2.6,-36.8 0,-41.5 2.6,-36.8"/></g>
      <g transform="rotate(180)"><polygon points="0,-32 -2.6,-36.8 0,-41.5 2.6,-36.8"/></g>
      <g transform="rotate(240)"><polygon points="0,-32 -2.6,-36.8 0,-41.5 2.6,-36.8"/></g>
      <g transform="rotate(300)"><polygon points="0,-32 -2.6,-36.8 0,-41.5 2.6,-36.8"/></g>
    </g>
    <circle r="4" fill="#86E0EC" opacity=".5"/>
    <circle r="2" fill="#F8FAFC"/>
    <circle r="0.55" fill="#070B14"/>
  </g>
</svg>
